REM MD5 eff0a2668741964362b09ff24b2bc235
FILE "Euro Demo 41 (Europe).bin" BINARY
  TRACK 01 MODE2/2352
    INDEX 01 00:00:00
  TRACK 02 AUDIO
    INDEX 00 34:48:16
    INDEX 01 34:50:16
  TRACK 03 AUDIO
    INDEX 00 38:18:57
    INDEX 01 38:20:57
  TRACK 04 AUDIO
    INDEX 00 41:45:25
    INDEX 01 41:47:25
  TRACK 05 AUDIO
    INDEX 00 43:20:28
    INDEX 01 43:22:28
REM LEADOUT 46:23:60
